<svg xmlns="http://www.w3.org/2000/svg" style="display:none">

  <symbol id="check-circle" viewBox="0 0 24 24">
    <path fill-rule="evenodd" clip-rule="evenodd" d="M2.25 12c0-5.385 4.365-9.75 9.75-9.75s9.75 4.365 9.75 9.75-4.365 9.75-9.75 9.75S2.25 17.385 2.25 12Zm13.36-1.814a.75.75 0 1 0-1.22-.872l-3.236 4.53L9.53 12.22a.75.75 0 0 0-1.06 1.06l2.25 2.25a.75.75 0 0 0 1.14-.094l3.75-5.25Z"/>
  </symbol>

  <symbol id="star" viewBox="0 0 24 24">
    <path fill-rule="evenodd" clip-rule="evenodd" d="M10.788 3.21c.448-1.077 1.976-1.077 2.424 0l2.082 5.006 5.404.434c1.164.093 1.636 1.545.749 2.305l-4.117 3.527 1.257 5.273c.271 1.136-.964 2.033-1.96 1.425L12 18.354 7.373 21.18c-.996.608-2.231-.29-1.96-1.425l1.257-5.273-4.117-3.527c-.887-.76-.415-2.212.749-2.305l5.404-.434 2.082-5.005Z"/>
  </symbol>

  <symbol id="bolt" viewBox="0 0 24 24">
    <path fill-rule="evenodd" clip-rule="evenodd" d="M14.615 1.595a.75.75 0 0 1 .359.852L12.982 9.75h7.268a.75.75 0 0 1 .548 1.262l-10.5 11.25a.75.75 0 0 1-1.272-.71l1.992-7.302H3.75a.75.75 0 0 1-.548-1.262l10.5-11.25a.75.75 0 0 1 .913-.143Z"/>
  </symbol>

</svg>
